<?xml version="1.0" encoding="UTF-8" standalone="no"?>
<!-- Created with Inkscape (http://www.inkscape.org/) -->

<svg
   xmlns:dc="http://purl.org/dc/elements/1.1/"
   xmlns:cc="http://creativecommons.org/ns#"
   xmlns:rdf="http://www.w3.org/1999/02/22-rdf-syntax-ns#"
   xmlns:svg="http://www.w3.org/2000/svg"
   xmlns="http://www.w3.org/2000/svg"
   version="1.1"
   width="38.69733"
   height="31.99992"
   id="svg2997">
  <defs
     id="defs2999" />
  <metadata
     id="metadata3002">
    <rdf:RDF>
      <cc:Work
         rdf:about="">
        <dc:format>image/svg+xml</dc:format>
        <dc:type
           rdf:resource="http://purl.org/dc/dcmitype/StillImage" />
        <dc:title></dc:title>
      </cc:Work>
    </rdf:RDF>
  </metadata>
  <path
     d="m 27.350858,11.30621 c -1.006317,0.47128 -2.087738,0.78983 -3.222796,0.93306 1.158509,-0.73334 2.048262,-1.89458 2.467281,-3.27836 -1.08436,0.67914 -2.285178,1.17224 -3.563348,1.43792 -1.023518,-1.15163 -2.481923,-1.87115 -4.095883,-1.87115 -3.098923,0 -5.611355,2.65297 -5.611355,5.92541 0,0.46444 0.04959,0.91669 0.145298,1.35044 C 8.806532,15.55633 4.671802,13.19729 1.904244,9.61219 1.42123,10.48736 1.144458,11.50525 1.144458,12.59123 c 0,2.05587 0.990616,3.86959 2.496295,4.93223 -0.919828,-0.0308 -1.785064,-0.29734 -2.541544,-0.74118 -5.32e-4,0.0245 -5.32e-4,0.0495 -5.32e-4,0.0745 0,2.87103 1.93427,5.26592 4.501187,5.81041 -0.470789,0.13538 -0.966576,0.20792 -1.478334,0.20792 -0.361597,0 -0.713093,-0.0372 -1.055784,-0.1064 0.714117,2.35405 2.786362,4.06752 5.241843,4.11517 -1.920434,1.58939 -4.339959,2.53668 -6.969004,2.53668 -0.452945,0 -0.89958,-0.0279 -1.338585,-0.0831 2.483257,1.68141 5.432819,2.66246 8.601666,2.66246 10.321241,0 15.965386,-9.02935 15.965386,-16.85984 0,-0.25692 -0.0055,-0.51244 -0.01625,-0.76665 1.096541,-0.8354 2.047837,-1.87901 2.800087,-3.06726 z"
     id="path3-7"
     style="fill:#55acee;fill-opacity:1" />
  <path
     d="m 29.630958,4.64171 -1.28928,1.11665 v 0.0825 c 1.066633,1.13685 1.725942,2.69307 1.725942,4.40928 0,1.71791 -0.659309,3.27243 -1.725942,4.40929 v 0.0825 l 1.28928,1.11664 c 1.339331,-1.45516 2.162604,-3.43074 2.162604,-5.60844 0,-2.1777 -0.823273,-4.1533 -2.162604,-5.60847 z"
     id="path5"
     style="fill:#55acee;fill-opacity:1" />
  <path
     d="M 32.345865,2.28549 31.05486,3.40381 c 1.542992,1.87621 2.464644,4.25603 2.464644,6.84636 0,2.59031 -0.921652,4.9718 -2.462918,6.84465 l 1.289279,1.11834 c 1.813964,-2.17098 2.899582,-4.94151 2.899582,-7.96299 0,-3.01981 -1.085618,-5.79204 -2.899582,-7.96468 z"
     id="path9"
     style="fill:#55acee;fill-opacity:1" />
  <path
     d="m 34.983103,0 -1.297907,1.12505 c 2.053869,2.48928 3.28619,5.66404 3.28619,9.12512 0,3.46107 -1.232321,6.63413 -3.28619,9.12509 l 1.297907,1.12504 c 2.31794,-2.78905 3.714228,-6.3596 3.714228,-10.25013 0,-3.89055 -1.396288,-7.4611 -3.714228,-10.25017 z"
     id="path11"
     style="fill:#55acee;fill-opacity:1" />
</svg>
