<?xml version="1.0" encoding="UTF-8" standalone="no"?>
<!-- Created with Inkscape (http://www.inkscape.org/) -->

<svg
   xmlns:dc="http://purl.org/dc/elements/1.1/"
   xmlns:cc="http://creativecommons.org/ns#"
   xmlns:rdf="http://www.w3.org/1999/02/22-rdf-syntax-ns#"
   xmlns:svg="http://www.w3.org/2000/svg"
   xmlns="http://www.w3.org/2000/svg"
   version="1.1"
   width="27.999929"
   height="28"
   id="svg6336">
  <defs
     id="defs6338" />
  <metadata
     id="metadata6341">
    <rdf:RDF>
      <cc:Work
         rdf:about="">
        <dc:format>image/svg+xml</dc:format>
        <dc:type
           rdf:resource="http://purl.org/dc/dcmitype/StillImage" />
        <dc:title></dc:title>
      </cc:Work>
    </rdf:RDF>
  </metadata>
  <g
     transform="translate(-313.71432,-442.07647)"
     id="layer1"
     style="fill:#ffffff">
    <path
       d="m 337.33925,461.32647 c -1.23484,0 -2.34937,0.5124 -3.14485,1.33525 l -11.78527,-5.89271 c 0.036,-0.22564 0.055,-0.45675 0.055,-0.69254 0,-0.23579 -0.0192,-0.4669 -0.055,-0.69254 l 11.78527,-5.8926 c 0.79548,0.82274 1.91001,1.33514 3.14485,1.33514 2.41626,0 4.375,-1.95871 4.375,-4.375 0,-2.41629 -1.95874,-4.375 -4.375,-4.375 -2.41626,0 -4.375,1.95871 -4.375,4.375 0,0.23579 0.0192,0.4669 0.0552,0.69254 l -11.78528,5.89271 c -0.79547,-0.82285 -1.91001,-1.33525 -3.14485,-1.33525 -2.41626,0 -4.375,1.95884 -4.375,4.375 0,2.41629 1.95874,4.375 4.375,4.375 1.23484,0 2.34938,-0.5124 3.14485,-1.33514 l 11.78528,5.8926 c -0.0358,0.22564 -0.0552,0.45675 -0.0552,0.69254 0,2.41629 1.95874,4.375 4.375,4.375 2.41626,0 4.375,-1.95871 4.375,-4.375 0,-2.41616 -1.95874,-4.375 -4.375,-4.375 z"
       id="path3-8-2"
       style="fill:#ffffff;fill-opacity:1" />
  </g>
</svg>
