<?xml version="1.0" encoding="UTF-8" standalone="no"?>
<!-- Created with Inkscape (http://www.inkscape.org/) -->

<svg
   xmlns:dc="http://purl.org/dc/elements/1.1/"
   xmlns:cc="http://creativecommons.org/ns#"
   xmlns:rdf="http://www.w3.org/1999/02/22-rdf-syntax-ns#"
   xmlns:svg="http://www.w3.org/2000/svg"
   xmlns="http://www.w3.org/2000/svg"
   version="1.1"
   width="48.742001"
   height="44.411861"
   id="svg2997">
  <defs
     id="defs2999" />
  <metadata
     id="metadata3002">
    <rdf:RDF>
      <cc:Work
         rdf:about="">
        <dc:format>image/svg+xml</dc:format>
        <dc:type
           rdf:resource="http://purl.org/dc/dcmitype/StillImage" />
        <dc:title></dc:title>
      </cc:Work>
    </rdf:RDF>
  </metadata>
  <g
     transform="translate(-321.34329,-221.58482)"
     id="layer1">
    <path
       d="m 351.32126,221.58482 9e-5,44.41186 -16.65446,-13.3236 h -13.3236 v -17.76475 h 13.32351 l 16.65446,-13.32351 z m 9.77047,28.89546 c 1.14744,-2.05384 1.72092,-4.27469 1.72092,-6.6618 0,-2.38712 -0.57367,-4.6076 -1.72092,-6.66181 -1.14716,-2.05411 -2.68306,-3.7102 -4.6076,-4.96855 l -2.38711,3.66395 c 1.33237,0.85122 2.38711,1.9799 3.1643,3.3864 0.77701,1.40641 1.16583,2.93302 1.16583,4.58001 0,1.64699 -0.38882,3.17359 -1.16583,4.58019 -0.77719,1.40641 -1.8322,2.53518 -3.1643,3.3864 l 2.38711,3.66376 c 1.92454,-1.25834 3.46044,-2.91453 4.6076,-4.96855 z m 6.38434,-16.84878 c -1.73959,-3.14582 -4.08956,-5.681 -7.05035,-7.60554 l -2.38711,3.66395 c 2.36863,1.51741 4.24709,3.52517 5.63474,6.02338 1.38783,2.49822 2.0818,5.19985 2.0818,8.10519 0,2.90533 -0.69397,5.59796 -2.0818,8.07741 -1.38765,2.47963 -3.26611,4.4782 -5.63474,5.99561 l 2.38711,3.66395 c 2.96079,-1.92454 5.31094,-4.45043 7.05035,-7.57777 1.73942,-3.12734 2.60922,-6.51374 2.60922,-10.1592 0,-3.64547 -0.86971,-7.04116 -2.60922,-10.18698 z"
       id="path3"
       style="fill:#64badf;fill-opacity:1" />
  </g>
</svg>
